<svg width="400" height="300" viewBox="0 0 400 300" xmlns="http://www.w3.org/2000/svg">
  <!-- Background -->
  <rect x="50" y="30" width="300" height="240" rx="10" fill="#f5f0ff" stroke="#9c68e2" stroke-width="2"/>
  
  <!-- Form Header -->
  <rect x="70" y="50" width="260" height="40" rx="5" fill="#d1bcf3"/>
  <rect x="90" y="65" width="140" height="10" rx="2" fill="#6c49a9"/>
  
  <!-- Form Fields -->
  <rect x="70" y="110" width="260" height="30" rx="3" fill="#ffffff" stroke="#9c68e2" stroke-width="1"/>
  <rect x="80" y="120" width="80" height="8" rx="2" fill="#d1bcf3"/>
  
  <rect x="70" y="160" width="260" height="30" rx="3" fill="#ffffff" stroke="#9c68e2" stroke-width="1"/>
  <rect x="80" y="170" width="100" height="8" rx="2" fill="#d1bcf3"/>
  
  <!-- Radio Buttons -->
  <circle cx="85" y="220" r="8" fill="#ffffff" stroke="#9c68e2" stroke-width="1"/>
  <circle cx="85" y="220" r="4" fill="#9c68e2"/>
  <rect x="100" y="216" width="60" height="8" rx="2" fill="#d1bcf3"/>
  
  <circle cx="185" y="220" r="8" fill="#ffffff" stroke="#9c68e2" stroke-width="1"/>
  <rect x="200" y="216" width="60" height="8" rx="2" fill="#d1bcf3"/>
  
  <!-- Submit Button -->
  <rect x="120" y="250" width="160" height="30" rx="15" fill="#9c68e2"/>
  <rect x="160" y="260" width="80" height="10" rx="2" fill="#ffffff"/>
</svg> 